<svg width="60" height="52" viewBox="0 0 60 52" fill="none" xmlns="http://www.w3.org/2000/svg">
<path d="M20.9373 9.94486C21.7682 11.4637 23.0367 12.6576 24.1559 13.7104C24.3422 13.8858 24.5271 14.0597 24.7075 14.2327C25.4024 14.9002 26.1009 15.5392 26.7761 16.1563C27.4362 16.7596 28.1183 17.3835 28.7825 18.0212C29.4629 18.6744 30.5375 18.6744 31.2178 18.0212C31.8816 17.384 32.5636 16.7605 33.2233 16.1572C33.8989 15.5397 34.5975 14.9006 35.2928 14.2327C35.4727 14.0597 35.6577 13.8862 35.844 13.7109C36.9637 12.6576 38.2321 11.4637 39.063 9.94486C40.217 7.83457 40.1785 5.38645 38.96 3.39609C37.762 1.43915 35.8998 0.35242 33.7172 0.33594C32.4254 0.32587 31.1597 0.693912 30.0478 1.39521L30.0432 1.39803C30.0169 1.4145 29.9834 1.41447 29.9571 1.39795C28.8548 0.702609 27.6028 0.33594 26.3326 0.33594C26.3161 0.33594 26.3 0.33594 26.2831 0.33594C24.1005 0.35242 22.2383 1.43915 21.0403 3.39609C19.8218 5.38645 19.7833 7.83457 20.9373 9.94486Z" fill="url(#paint0_linear_10720_1937)"/>
<path d="M56.0788 33.1031C53.9132 33.1031 52.1576 31.3475 52.1576 29.1819V27.1481C52.1576 21.4984 47.5612 16.9015 41.911 16.9015C37.0798 16.9015 33.0193 20.2628 31.944 24.7696C31.7232 25.6949 30.9513 26.4385 30 26.4385C29.0487 26.4385 28.2768 25.6949 28.056 24.7696C26.9807 20.2628 22.9202 16.9015 18.089 16.9015C12.4388 16.9015 7.84241 21.4984 7.84241 27.1481V29.1819C7.84241 31.3475 6.08682 33.1031 3.9212 33.1031C1.75558 33.1031 0 34.8587 0 37.0243V39.4523C0 44.002 3.70148 47.7035 8.25119 47.7035C8.52676 47.7035 8.75015 47.9269 8.75015 48.2025V49.811C8.75015 50.7818 9.53715 51.5688 10.508 51.5688C11.4788 51.5688 12.2658 50.7818 12.2658 49.811V49.1864C12.2658 48.3674 12.9297 47.7035 13.7487 47.7035C14.5677 47.7035 15.2316 48.3674 15.2316 49.1864V49.811C15.2316 50.7818 16.0186 51.5688 16.9894 51.5688C17.9603 51.5688 18.7473 50.7818 18.7473 49.811V49.5776C18.7473 48.5187 19.585 47.6658 20.6136 47.4142C25.0406 46.3311 28.3356 42.3303 28.3356 37.5741V31.6186C28.3356 30.6994 29.0808 29.9542 30 29.9542C30.9192 29.9542 31.6644 30.6994 31.6644 31.6186V37.5741C31.6644 42.3303 34.9594 46.3311 39.3864 47.4142C40.415 47.6658 41.2527 48.5187 41.2527 49.5776V49.811C41.2527 50.7818 42.0397 51.5688 43.0106 51.5688C43.9814 51.5688 44.7684 50.7818 44.7684 49.811V49.1864C44.7684 48.3674 45.4323 47.7035 46.2513 47.7035C47.0703 47.7035 47.7342 48.3674 47.7342 49.1864V49.811C47.7342 50.7818 48.5212 51.5688 49.492 51.5688C50.4628 51.5688 51.2498 50.7818 51.2498 49.811V48.2025C51.2498 47.9269 51.4732 47.7035 51.7488 47.7035C56.2985 47.7035 60 44.002 60 39.4523V37.0243C60 34.8587 58.2444 33.1031 56.0788 33.1031ZM21.5918 35.8245C21.5918 38.7588 19.205 41.146 16.2708 41.146H14.8453C13.8745 41.146 13.0875 40.359 13.0875 39.3882C13.0875 38.4174 13.8745 37.6304 14.8453 37.6304H16.2708C17.2664 37.6304 18.0762 36.8206 18.0762 35.8245C18.0762 34.8537 18.8632 34.0594 19.834 34.0594C20.8048 34.0594 21.5918 34.8537 21.5918 35.8245ZM21.5918 26.8318C21.5918 27.8026 20.8048 28.5896 19.834 28.5896C18.8632 28.5896 18.0762 27.8026 18.0762 26.8318C18.0762 25.8609 18.8632 25.0739 19.834 25.0739C20.8048 25.0739 21.5918 25.8609 21.5918 26.8318ZM38.4082 26.8318C38.4082 25.8609 39.1952 25.0739 40.166 25.0739C41.1368 25.0739 41.9238 25.8609 41.9238 26.8318C41.9238 27.8026 41.1368 28.5896 40.166 28.5896C39.1952 28.5896 38.4082 27.8026 38.4082 26.8318ZM46.9125 39.3882C46.9125 40.359 46.1255 41.146 45.1547 41.146H43.7292C40.795 41.146 38.4082 38.7588 38.4082 35.8245C38.4082 34.8537 39.1952 34.0594 40.166 34.0594C41.1368 34.0594 41.9238 34.8537 41.9238 35.8245C41.9238 36.8206 42.7336 37.6304 43.7292 37.6304H45.1547C46.1255 37.6304 46.9125 38.4174 46.9125 39.3882Z" fill="url(#paint1_linear_10720_1937)"/>
<defs>
<linearGradient id="paint0_linear_10720_1937" x1="20.0983" y1="9.76303" x2="39.902" y2="9.76303" gradientUnits="userSpaceOnUse">
<stop stop-color="#EE0979"/>
<stop offset="1" stop-color="#FF6A00"/>
</linearGradient>
<linearGradient id="paint1_linear_10720_1937" x1="-3.35276e-07" y1="34.2352" x2="60" y2="34.2352" gradientUnits="userSpaceOnUse">
<stop stop-color="#EE0979"/>
<stop offset="1" stop-color="#FF6A00"/>
</linearGradient>
</defs>
</svg>
