<svg width="463" height="878" viewBox="0 0 463 878" fill="none" xmlns="http://www.w3.org/2000/svg">
<g filter="url(#filter0_d_24_745)">
<path fill-rule="evenodd" clip-rule="evenodd" d="M297.997 110.986C365.869 182.189 366.971 288.371 387.692 384.525C408.417 480.703 456.843 580.137 418.63 670.787C380.241 761.855 269.827 789.586 191.524 849.881C136.5 892.251 136.5 880.5 19.9999 880.5C-24.0001 880.5 -16.0001 878 -16.0001 767.5C-16.0001 646.5 -16 714 -16 604.5C-16 495 -16 478.643 -16 398C-16 317.104 -16 198.248 -16 161.641C-16 154.176 -16.1767 146.803 -16.3415 139.34C-16.7614 120.326 -16.9347 80.5418 -12.4025 47.9093C-6.03296 2.04817 44.1289 6.89903 89.185 17.5647C166.576 35.8846 243.728 54.0539 297.997 110.986Z" fill="url(#paint0_linear_24_745)"/>
</g>
<defs>
<filter id="filter0_d_24_745" x="-46.569" y="0.386566" width="509.455" height="931.609" filterUnits="userSpaceOnUse" color-interpolation-filters="sRGB">
<feFlood flood-opacity="0" result="BackgroundImageFix"/>
<feColorMatrix in="SourceAlpha" type="matrix" values="0 0 0 0 0 0 0 0 0 0 0 0 0 0 0 0 0 0 127 0" result="hardAlpha"/>
<feOffset dy="20"/>
<feGaussianBlur stdDeviation="15"/>
<feComposite in2="hardAlpha" operator="out"/>
<feColorMatrix type="matrix" values="0 0 0 0 0.701961 0 0 0 0 0.133333 0 0 0 0 0.121569 0 0 0 0.2 0"/>
<feBlend mode="normal" in2="BackgroundImageFix" result="effect1_dropShadow_24_745"/>
<feBlend mode="normal" in="SourceGraphic" in2="effect1_dropShadow_24_745" result="shape"/>
</filter>
<linearGradient id="paint0_linear_24_745" x1="-486.703" y1="71.6853" x2="319.936" y2="794.335" gradientUnits="userSpaceOnUse">
<stop stop-color="#EE0979"/>
<stop offset="1" stop-color="#FF6A00"/>
</linearGradient>
</defs>
</svg>
